<?xml version="1.0" encoding="UTF-8" standalone="no"?>
<!-- Created with Inkscape (http://www.inkscape.org/) -->

<svg
   width="210mm"
   height="297mm"
   viewBox="0 0 210 297"
   version="1.1"
   id="svg1"
   inkscape:version="1.3.2 (091e20e, 2023-11-25, custom)"
   sodipodi:docname="slimak.svg"
   xmlns:inkscape="http://www.inkscape.org/namespaces/inkscape"
   xmlns:sodipodi="http://sodipodi.sourceforge.net/DTD/sodipodi-0.dtd"
   xmlns="http://www.w3.org/2000/svg"
   xmlns:svg="http://www.w3.org/2000/svg">
  <sodipodi:namedview
     id="namedview1"
     pagecolor="#ffffff"
     bordercolor="#000000"
     borderopacity="0.25"
     inkscape:showpageshadow="2"
     inkscape:pageopacity="0.0"
     inkscape:pagecheckerboard="0"
     inkscape:deskcolor="#d1d1d1"
     inkscape:document-units="mm"
     inkscape:zoom="0.97890839"
     inkscape:cx="270.19893"
     inkscape:cy="309.01768"
     inkscape:window-width="1920"
     inkscape:window-height="991"
     inkscape:window-x="-9"
     inkscape:window-y="-9"
     inkscape:window-maximized="1"
     inkscape:current-layer="layer1" />
  <defs
     id="defs1" />
  <g
     inkscape:label="Warstwa 1"
     inkscape:groupmode="layer"
     id="layer1">
    <path
       style="opacity:1;mix-blend-mode:darken;fill:#803300;fill-opacity:0.72402;fill-rule:evenodd;stroke:#000000;stroke-width:0.549;stroke-dasharray:none;stroke-opacity:1;paint-order:fill markers stroke"
       d="m 49.69112,116.96525 c -10.051568,-1.37326 -13.448214,11.20646 -6.498071,13.37838 7.577474,3.62956 16.267993,14.02156 35.548262,11.84942 27.405879,-1.14337 32.887599,-7.02833 42.237449,-13.18726 0.50979,-16.66691 6.15957,-11.44903 8.60038,-14.90734 0.11807,4.97846 3.70352,8.0185 8.40928,8.40927 20.2258,4.83429 12.72601,-13.69257 11.46718,-13.5695 -2.88502,-7.21462 -8.1218,-9.725733 -14.60262,-9.748749 -5.50994,-0.535967 -14.37139,0.567813 -18.8377,2.466999 -3.73173,3.44015 -6.66795,6.8803 -6.11583,10.32046 -1.01333,8.32973 -7.31724,8.52012 -12.810647,9.95743 -9.173745,3.94381 -18.347491,4.13912 -27.521236,3.44015 -7.456435,-1.41817 -13.403491,-5.35196 -19.876447,-8.40926 z"
       id="path1"
       sodipodi:nodetypes="ccccccccccccc" />
    <ellipse
       style="opacity:1;fill:#f9f9f9;fill-opacity:1;fill-rule:evenodd;stroke:#000000;stroke-width:0.618479;stroke-dasharray:none;stroke-opacity:1;paint-order:fill markers stroke"
       id="path2"
       cx="141.44113"
       cy="107.75971"
       rx="3.4835851"
       ry="4.7906208" />
    <ellipse
       style="opacity:1;fill:#000000;fill-opacity:1;fill-rule:evenodd;stroke:#000000;stroke-width:0.703707;stroke-dasharray:none;stroke-opacity:1;paint-order:fill markers stroke"
       id="path3"
       cx="142.84512"
       cy="109.3299"
       rx="1.2740666"
       ry="2.3552029" />
    <path
       style="opacity:1;fill:#000000;fill-opacity:1;fill-rule:evenodd;stroke:#000000;stroke-width:0.549;stroke-dasharray:none;stroke-opacity:1;paint-order:fill markers stroke"
       id="path4"
       d="m 150.85737,118.6572 c -0.52042,0.0863 -1.02603,0.23197 -1.53539,0.36589 -0.42322,0.10691 -0.85915,0.13704 -1.29368,0.15267 -0.57994,0.0427 -1.15379,0.13776 -1.73122,0.20409 -0.54684,0.06 -1.09193,0.13054 -1.64086,0.17062 -0.44837,0.0552 -0.88985,-0.0122 -1.33027,-0.0911 -0.50441,-0.0423 -0.93485,-0.25003 -1.36742,-0.49331 1.54788,0.91816 0.63308,0.35481 0.47528,0.26528 -0.98596,-0.55934 -0.69985,-0.40772 -1.22442,-0.68075 0,0 0.76031,0.61008 0.76031,0.61008 v 0 c 0.76787,0.39776 -0.98195,-0.59231 -0.27441,-0.17942 0.34026,0.19856 0.6804,0.39733 1.0206,0.596 0.43711,0.23947 0.88516,0.41819 1.38691,0.46731 0.44554,0.0757 0.89162,0.13167 1.34341,0.0705 0.5486,-0.0459 1.09434,-0.116 1.6416,-0.17506 0.57609,-0.0725 1.15041,-0.16593 1.73106,-0.19424 0.4389,-0.0162 0.87795,-0.0597 1.30379,-0.17249 0.5095,-0.1403 1.01784,-0.28381 1.54413,-0.34816 z" />
    <path
       style="opacity:1;fill:#000000;fill-opacity:1;fill-rule:evenodd;stroke:#000000;stroke-width:0.549;stroke-dasharray:none;stroke-opacity:1;paint-order:fill markers stroke"
       id="path5"
       d="m 142.1103,117.41304 c -0.19033,0.37764 -0.53987,0.62318 -0.87509,0.86325 -0.3616,0.23869 -0.76887,0.43604 -1.02975,0.79039 0,0 0.84258,0.49946 0.84258,0.49946 v 0 c 0.25592,-0.3416 0.6598,-0.53046 1.00466,-0.77011 0.35359,-0.25177 0.70909,-0.51114 0.92202,-0.90028 z" />
    <path
       style="opacity:1;fill:#000000;fill-opacity:1;fill-rule:evenodd;stroke:#000000;stroke-width:0.549;stroke-dasharray:none;stroke-opacity:1;paint-order:fill markers stroke"
       id="path6"
       d="m 144.08396,100.9361 c -0.1555,-0.55365 -0.19621,-1.126661 -0.2314,-1.697817 -0.0202,-0.750544 -0.10159,-1.535258 0.11967,-2.267484 0.0474,-0.156859 0.12333,-0.303631 0.18499,-0.455446 0.76892,-1.04757 1.8019,-1.867609 2.8148,-2.667678 0,0 -0.7736,-0.485809 -0.7736,-0.485809 v 0 c -1.01441,0.825349 -2.06063,1.652953 -2.864,2.693043 -0.065,0.156739 -0.14476,0.308136 -0.19493,0.470223 -0.22799,0.736571 -0.15603,1.527087 -0.14127,2.283984 0.0301,0.567692 0.055,1.139473 0.19744,1.692704 z" />
    <path
       style="opacity:1;fill:#000000;fill-opacity:1;fill-rule:evenodd;stroke:#000000;stroke-width:0.549;stroke-dasharray:none;stroke-opacity:1;paint-order:fill markers stroke"
       id="path7"
       d="m 143.21623,99.62391 c 0.009,0.348197 0.002,0.160274 0.0256,0.56366 0,0 0.86071,0.43308 0.86071,0.43308 v 0 c -0.0163,-0.3927 -0.0159,-0.20981 -0.007,-0.54861 z" />
    <path
       style="opacity:1;fill:#000000;fill-opacity:1;fill-rule:evenodd;stroke:#000000;stroke-width:0.549;stroke-dasharray:none;stroke-opacity:1;paint-order:fill markers stroke"
       id="path8"
       d="m 143.54103,101.13399 c 0.13345,0.21455 0.23719,0.44562 0.34724,0.67252 0,0 0.88194,0.40044 0.88194,0.40044 v 0 c -0.10824,-0.22474 -0.20662,-0.45452 -0.3294,-0.67187 z" />
    <path
       style="opacity:1;fill:#000000;fill-opacity:1;fill-rule:evenodd;stroke:#000000;stroke-width:0.549;stroke-dasharray:none;stroke-opacity:1;paint-order:fill markers stroke"
       id="path9"
       d="m 138.20004,99.61696 c 0.58258,-1.003459 0.76086,-2.17882 0.8848,-3.314248 -0.008,-0.268943 0.01,-0.539718 -0.0226,-0.806825 -0.13545,-1.122183 -0.71695,-2.159609 -1.40147,-3.036798 -0.16759,-0.214759 -0.35388,-0.414242 -0.53083,-0.621366 0,0 -0.8351,-0.35307 -0.8351,-0.35307 v 0 c 0.17928,0.205271 0.36786,0.402777 0.53784,0.615817 0.68413,0.857443 1.27468,1.879873 1.41879,2.985524 0.0343,0.263073 0.0186,0.530268 0.0279,0.795401 -0.0277,0.26294 -0.0427,0.52755 -0.0832,0.788818 -0.13187,0.849278 -0.37754,1.721088 -0.84739,2.447909 z" />
    <path
       style="opacity:1;fill:#000000;fill-opacity:1;fill-rule:evenodd;stroke:#000000;stroke-width:0.549;stroke-dasharray:none;stroke-opacity:1;paint-order:fill markers stroke"
       d="m 55.042471,119.64093 8.982626,4.01351"
       id="path10" />
    <path
       sodipodi:type="spiral"
       style="fill:none;fill-rule:evenodd;stroke:#000000;stroke-width:0.264583"
       id="path13"
       sodipodi:cx="45.137436"
       sodipodi:cy="99.464539"
       sodipodi:expansion="1"
       sodipodi:revolution="3"
       sodipodi:radius="41.495422"
       sodipodi:argument="-18.165659"
       sodipodi:t0="0"
       d="m 45.137436,99.464539 c 1.612641,1.314511 -0.97631,2.822341 -2.184798,2.680311 -3.274928,-0.38487 -4.207546,-4.434449 -3.175833,-7.049907 1.845493,-4.678441 7.760282,-5.806928 11.915024,-3.67135 6.097251,3.134045 7.448061,11.129187 4.166868,16.780137 -4.373314,7.53183 -14.513112,9.10664 -21.64525,4.66239 -8.975066,-5.59265 -10.774184,-17.90414 -5.157903,-26.510368 6.802069,-10.423295 21.29914,-12.4469 31.375476,-5.653421 11.874613,8.00588 14.122861,24.696629 6.148938,36.240589 -9.206209,13.32796 -28.095768,15.80099 -41.105701,6.64446 C 10.691544,113.18314 7.993624,92.091302 18.334283,77.616562 29.934939,61.378091 53.231513,58.455185 69.17021,69.98107 c 17.694976,12.795917 20.842945,38.29903 8.13101,55.70104"
       transform="matrix(-1,0,0,1,131.7486,-4.865113)" />
    <path
       style="opacity:1;fill:#ffccaa;fill-opacity:1;fill-rule:evenodd;stroke:#000000;stroke-width:0;stroke-dasharray:none;stroke-opacity:1;paint-order:fill markers stroke"
       d="m 267.62776,472.77043 c -8.05057,-0.67139 -19.07578,-3.68041 -26.32548,-7.18481 -3.20031,-1.54698 -11.77194,-5.4444 -19.04808,-8.66094 -18.02219,-7.96702 -21.42664,-9.7639 -23.18939,-12.23947 -3.01552,-4.23489 -10.80802,-21.28206 -13.6711,-29.9074 -19.41033,-58.47573 -1.95909,-123.23317 43.48953,-161.3794 41.45539,-34.79461 99.86861,-42.54673 148.375,-19.6911 37.53434,17.68573 62.87038,49.66235 71.48479,90.22098 1.73904,8.18776 1.92925,10.5843 1.95268,24.60179 0.0243,14.54107 -0.75218,22.47716 -2.91074,29.74888 -0.22051,0.74286 -2.24606,1.82699 -5.20335,2.785 -4.36659,1.41454 -5.48752,2.22204 -11.41055,8.21998 -7.6753,7.77239 -13.35052,15.54956 -15.52225,21.27127 -0.97455,2.56756 -1.65504,6.33494 -1.84406,10.20909 -0.53778,11.02269 -3.58355,18.41266 -10.14719,24.62028 -5.19772,4.91579 -12.27762,8.05195 -25.28879,11.20206 -5.88314,1.42436 -14.1097,3.8495 -18.28122,5.38919 -15.81818,5.83842 -19.59634,6.64027 -29.25486,6.2089 -20.42496,-0.91223 -39.47109,-7.0994 -56.70386,-18.42032 -8.10252,-5.32289 -22.23373,-19.45441 -27.5548,-27.55543 -7.63964,-11.63088 -12.25352,-22.6695 -15.19018,-36.34218 -2.25532,-10.50052 -2.25532,-28.77815 0,-39.27867 4.19744,-19.54271 12.23768,-34.70721 25.40877,-47.92288 17.97629,-18.03714 40.40807,-26.83816 65.68535,-25.7714 35.66368,1.50509 64.92926,23.79387 74.1779,56.49417 2.66524,9.42343 3.16462,24.64272 1.13064,34.45722 -2.81863,13.60062 -8.33927,23.87839 -18.19573,33.87492 -13.34028,13.52987 -28.0151,19.34602 -46.7934,18.54587 -13.03405,-0.55538 -23.00634,-4.24146 -33.16996,-12.26069 -19.87127,-15.67869 -24.28016,-45.76264 -9.53267,-65.04581 8.28639,-10.83492 22.03504,-16.56196 34.43828,-14.34537 12.51451,2.23647 21.27762,10.25382 23.32742,21.34222 1.29678,7.01491 -1.84087,15.56815 -6.93555,18.90631 -4.15144,2.72013 -10.51923,1.90087 -13.36723,-1.71978 -1.72255,-2.18987 -1.74893,-2.62344 -0.2507,-4.12167 1.4279,-1.42789 0.67706,-2.42809 -1.02356,-1.36348 -0.6762,0.4233 -1.33221,1.80532 -1.4578,3.07114 -0.18014,1.81559 0.25308,2.75125 2.05189,4.43158 6.44614,6.02159 16.25195,3.45443 20.57779,-5.38728 6.5076,-13.30104 -0.55603,-29.26223 -15.53909,-35.11262 -5.03774,-1.96707 -14.31441,-2.62876 -20.37591,-1.45339 -7.38795,1.43259 -13.24554,4.71081 -19.38184,10.84711 -8.78087,8.78087 -12.47111,18.1801 -12.48972,31.81199 -0.0125,9.15224 1.27869,14.66078 5.41334,23.09467 4.12209,8.40825 13.51213,17.9257 21.91333,22.21065 11.51936,5.87534 23.21144,8.09833 35.42881,6.73602 43.39779,-4.83914 69.45405,-50.10695 54.27835,-94.29835 -8.93303,-26.01283 -32.0374,-45.41271 -60.75015,-51.00963 -8.23122,-1.6045 -23.13812,-1.91962 -31.12404,-0.65795 -37.48141,5.9216 -66.37739,34.12386 -75.14181,73.33784 -1.72947,7.73803 -2.16894,27.31573 -0.81074,36.11711 3.45658,22.39919 12.93917,41.09747 28.9575,57.09993 18.03048,18.01261 40.51783,28.40866 67.5818,31.24355 l 5.41757,0.56748 -5.77874,0.87876 c -14.66472,2.23004 -40.97712,2.95584 -57.4262,1.58406 z"
       id="path16"
       transform="scale(0.26458333)" />
  </g>
</svg>
